<svg width="1024" height="1024" viewBox="0 0 1024 1024" fill="none" xmlns="http://www.w3.org/2000/svg">
  <rect width="1024" height="1024" rx="224" fill="url(#bg)"/>
  <path d="M262 294C262 245.399 301.399 206 350 206H505.273C537.56 206 568.048 220.615 588.149 245.719L622.108 288.13C630.451 298.554 643.085 304.626 656.437 304.626H781C829.601 304.626 869 344.025 869 392.626V674C869 751.32 806.32 814 729 814H295C217.68 814 155 751.32 155 674V382C155 333.399 194.399 294 243 294H262Z" fill="url(#folder)"/>
  <path d="M270 365H766C799.137 365 826 391.863 826 425V627C826 682.228 781.228 727 726 727H298C242.772 727 198 682.228 198 627V437C198 397.235 230.235 365 270 365Z" fill="url(#body)"/>
  <path d="M371.086 629.14C382.564 649.228 405.48 662 430.862 662H604.808C668.263 662 719.703 610.561 719.703 547.106C719.703 504.291 695.948 465.012 658.064 445.157C651.85 441.901 649.123 434.448 651.74 427.937C654.711 420.544 656.329 412.471 656.329 404.019C656.329 368.643 627.648 339.963 592.273 339.963C565.593 339.963 542.72 356.273 533.073 379.447C531.602 382.98 528.135 385.384 524.315 385.384H442.804C379.483 385.384 328.157 436.709 328.157 500.031C328.157 523.304 335.101 544.955 347.021 563.028L371.086 629.14Z" fill="white" fill-opacity="0.96"/>
  <path d="M599.334 426.997C599.334 412.544 587.615 400.825 573.162 400.825C558.709 400.825 546.99 412.544 546.99 426.997V450.938C546.99 465.391 558.709 477.11 573.162 477.11C587.615 477.11 599.334 465.391 599.334 450.938V426.997Z" fill="#0F5FFF"/>
  <path d="M506.9 526.256C492.447 526.256 480.728 537.975 480.728 552.428C480.728 566.881 492.447 578.6 506.9 578.6H567.476C581.929 578.6 593.648 566.881 593.648 552.428C593.648 537.975 581.929 526.256 567.476 526.256H506.9Z" fill="#0F5FFF"/>
  <defs>
    <linearGradient id="bg" x1="111" y1="92" x2="906" y2="913" gradientUnits="userSpaceOnUse">
      <stop stop-color="#DAF4FF"/>
      <stop offset="0.48" stop-color="#87D8FF"/>
      <stop offset="1" stop-color="#0C68FF"/>
    </linearGradient>
    <linearGradient id="folder" x1="222" y1="228" x2="745" y2="651" gradientUnits="userSpaceOnUse">
      <stop stop-color="#18C4D8"/>
      <stop offset="1" stop-color="#116BFF"/>
    </linearGradient>
    <linearGradient id="body" x1="198" y1="365" x2="750" y2="736" gradientUnits="userSpaceOnUse">
      <stop stop-color="#0CB8A5"/>
      <stop offset="1" stop-color="#13A9FF"/>
    </linearGradient>
  </defs>
</svg>
